<mxfile host="app.diagrams.net" modified="2020-08-22T18:11:32.581Z" agent="5.0 (X11)" etag="OHxKukVjVphrR9JXx2eC" version="13.6.4" type="github">
  <diagram id="YuxSeg3jxWOvCLHMLxM0" name="Page-1">
    <mxGraphModel dx="2071" dy="669" grid="1" gridSize="10" guides="1" tooltips="1" connect="1" arrows="1" fold="1" page="1" pageScale="1" pageWidth="850" pageHeight="1100" math="0" shadow="0">
      <root>
        <mxCell id="0" />
        <mxCell id="1" parent="0" />
        <mxCell id="iXWuRrLyi4cy8TGjW2jB-1" value="Physics" style="rounded=1;whiteSpace=wrap;html=1;fillColor=#dae8fc;strokeColor=#6c8ebf;" vertex="1" parent="1">
          <mxGeometry x="300" y="130" width="140" height="40" as="geometry" />
        </mxCell>
        <mxCell id="iXWuRrLyi4cy8TGjW2jB-4" style="edgeStyle=orthogonalEdgeStyle;rounded=0;orthogonalLoop=1;jettySize=auto;html=1;exitX=1;exitY=0.5;exitDx=0;exitDy=0;entryX=0.25;entryY=1;entryDx=0;entryDy=0;" edge="1" parent="1" source="iXWuRrLyi4cy8TGjW2jB-2" target="iXWuRrLyi4cy8TGjW2jB-1">
          <mxGeometry relative="1" as="geometry" />
        </mxCell>
        <mxCell id="iXWuRrLyi4cy8TGjW2jB-2" value="Collision Detection" style="rounded=1;whiteSpace=wrap;html=1;fillColor=#f5f5f5;strokeColor=#666666;fontColor=#333333;" vertex="1" parent="1">
          <mxGeometry x="90" y="200" width="140" height="40" as="geometry" />
        </mxCell>
        <mxCell id="iXWuRrLyi4cy8TGjW2jB-5" style="edgeStyle=orthogonalEdgeStyle;rounded=0;orthogonalLoop=1;jettySize=auto;html=1;exitX=1;exitY=0.5;exitDx=0;exitDy=0;entryX=0.45;entryY=1.025;entryDx=0;entryDy=0;entryPerimeter=0;" edge="1" parent="1" source="iXWuRrLyi4cy8TGjW2jB-3" target="iXWuRrLyi4cy8TGjW2jB-1">
          <mxGeometry relative="1" as="geometry" />
        </mxCell>
        <mxCell id="iXWuRrLyi4cy8TGjW2jB-3" value="Destructable Buildings" style="rounded=1;whiteSpace=wrap;html=1;fillColor=#f5f5f5;strokeColor=#666666;fontColor=#333333;" vertex="1" parent="1">
          <mxGeometry x="90" y="270" width="140" height="40" as="geometry" />
        </mxCell>
        <mxCell id="iXWuRrLyi4cy8TGjW2jB-6" value="User Building Design" style="rounded=1;whiteSpace=wrap;html=1;fillColor=#dae8fc;strokeColor=#6c8ebf;" vertex="1" parent="1">
          <mxGeometry x="760" y="130" width="140" height="40" as="geometry" />
        </mxCell>
        <mxCell id="iXWuRrLyi4cy8TGjW2jB-7" value="User Movement" style="rounded=1;whiteSpace=wrap;html=1;fillColor=#dae8fc;strokeColor=#6c8ebf;" vertex="1" parent="1">
          <mxGeometry x="760" y="220" width="140" height="40" as="geometry" />
        </mxCell>
        <mxCell id="iXWuRrLyi4cy8TGjW2jB-8" value="&lt;div&gt;User Object Interaction&lt;/div&gt;&lt;div&gt;(Clicking on a bookshelf)&lt;br&gt;&lt;/div&gt;" style="rounded=1;whiteSpace=wrap;html=1;fillColor=#dae8fc;strokeColor=#6c8ebf;" vertex="1" parent="1">
          <mxGeometry x="760" y="310" width="140" height="70" as="geometry" />
        </mxCell>
        <mxCell id="iXWuRrLyi4cy8TGjW2jB-9" value="Buildings" style="rounded=1;whiteSpace=wrap;html=1;fillColor=#dae8fc;strokeColor=#6c8ebf;" vertex="1" parent="1">
          <mxGeometry x="300" y="400" width="140" height="40" as="geometry" />
        </mxCell>
        <mxCell id="iXWuRrLyi4cy8TGjW2jB-10" value="&lt;div&gt;Loose Objects&lt;/div&gt;" style="rounded=1;whiteSpace=wrap;html=1;fillColor=#dae8fc;strokeColor=#6c8ebf;" vertex="1" parent="1">
          <mxGeometry x="300" y="520" width="140" height="40" as="geometry" />
        </mxCell>
        <mxCell id="iXWuRrLyi4cy8TGjW2jB-11" value="Fundamental Objects" style="rounded=1;whiteSpace=wrap;html=1;fillColor=#dae8fc;strokeColor=#6c8ebf;" vertex="1" parent="1">
          <mxGeometry x="50" y="570" width="140" height="40" as="geometry" />
        </mxCell>
        <mxCell id="iXWuRrLyi4cy8TGjW2jB-12" value="3D Renderable" style="rounded=1;whiteSpace=wrap;html=1;fillColor=#dae8fc;strokeColor=#6c8ebf;" vertex="1" parent="1">
          <mxGeometry x="-470" y="540" width="140" height="40" as="geometry" />
        </mxCell>
        <mxCell id="iXWuRrLyi4cy8TGjW2jB-15" style="edgeStyle=orthogonalEdgeStyle;rounded=0;orthogonalLoop=1;jettySize=auto;html=1;exitX=0;exitY=0.5;exitDx=0;exitDy=0;entryX=1;entryY=0.25;entryDx=0;entryDy=0;" edge="1" parent="1" source="iXWuRrLyi4cy8TGjW2jB-13" target="iXWuRrLyi4cy8TGjW2jB-12">
          <mxGeometry relative="1" as="geometry" />
        </mxCell>
        <mxCell id="iXWuRrLyi4cy8TGjW2jB-13" value="&lt;div&gt;Programmably Made&lt;/div&gt;&lt;div&gt;Model&lt;br&gt;&lt;/div&gt;" style="rounded=1;whiteSpace=wrap;html=1;fillColor=#f5f5f5;strokeColor=#666666;fontColor=#333333;" vertex="1" parent="1">
          <mxGeometry x="-280" y="500" width="140" height="40" as="geometry" />
        </mxCell>
        <mxCell id="iXWuRrLyi4cy8TGjW2jB-16" style="edgeStyle=orthogonalEdgeStyle;rounded=0;orthogonalLoop=1;jettySize=auto;html=1;exitX=0;exitY=0.5;exitDx=0;exitDy=0;entryX=1;entryY=0.75;entryDx=0;entryDy=0;" edge="1" parent="1" source="iXWuRrLyi4cy8TGjW2jB-14" target="iXWuRrLyi4cy8TGjW2jB-12">
          <mxGeometry relative="1" as="geometry" />
        </mxCell>
        <mxCell id="iXWuRrLyi4cy8TGjW2jB-14" value=".dae" style="rounded=1;whiteSpace=wrap;html=1;fillColor=#f5f5f5;strokeColor=#666666;fontColor=#333333;" vertex="1" parent="1">
          <mxGeometry x="-280" y="590" width="140" height="40" as="geometry" />
        </mxCell>
      </root>
    </mxGraphModel>
  </diagram>
</mxfile>
